<?xml version="1.0" standalone="no"?>
<!DOCTYPE svg PUBLIC "-//W3C//DTD SVG 20010904//EN"
 "http://www.w3.org/TR/2001/REC-SVG-20010904/DTD/svg10.dtd">
<svg version="1.0" xmlns="http://www.w3.org/2000/svg"
 width="512.000000pt" height="512.000000pt" viewBox="0 0 512.000000 512.000000"
 preserveAspectRatio="xMidYMid meet">

<g transform="translate(0.000000,512.000000) scale(0.100000,-0.100000)"
fill="#000000" stroke="none">
<path d="M3715 4565 c-222 -48 -435 -221 -531 -429 l-24 -52 -82 27 c-46 15
-128 38 -183 50 -98 22 -117 23 -799 26 -647 4 -700 3 -717 -13 -11 -9 -19
-25 -19 -36 0 -16 -10 -18 -105 -18 -95 0 -105 2 -105 18 0 41 -29 51 -160 54
l-125 3 -5 57 c-4 45 -11 63 -34 87 -33 35 -87 49 -126 34 -15 -6 -170 -93
-345 -193 -332 -192 -355 -209 -355 -273 0 -39 25 -89 52 -106 112 -72 642
-370 666 -376 73 -16 142 50 142 138 l0 47 216 0 216 0 -27 -36 c-110 -144
-180 -264 -238 -410 -84 -209 -117 -383 -117 -614 0 -177 32 -394 74 -500 5
-11 -13 -24 -69 -49 -165 -74 -296 -205 -375 -374 -157 -339 -46 -744 263
-956 125 -86 275 -131 432 -131 129 0 219 22 345 82 92 44 115 61 195 142 70
70 101 110 134 174 34 66 46 82 59 76 50 -20 178 -58 257 -75 140 -29 377 -41
787 -37 362 3 378 4 397 23 32 34 34 70 7 102 l-24 28 -524 6 c-572 6 -583 7
-786 75 l-81 26 2 109 c1 60 3 109 3 109 1 0 26 -11 55 -24 258 -112 598 -128
885 -41 l82 25 666 0 667 0 24 25 c21 20 25 34 25 80 0 31 4 55 8 53 5 -2 125
-70 267 -152 l257 -149 -58 -33 c-33 -18 -151 -87 -264 -152 l-205 -119 -3 51
c-3 62 -16 90 -49 105 -16 7 -132 11 -349 11 l-326 0 -29 -30 c-24 -23 -28
-34 -23 -57 3 -15 15 -37 25 -48 19 -19 35 -20 309 -23 l290 -3 0 -50 c0 -42
5 -55 33 -85 40 -44 96 -55 148 -29 19 10 171 96 338 193 225 130 308 183 323
206 28 44 19 109 -18 146 -29 29 -573 347 -652 382 -39 17 -48 18 -85 6 -56
-18 -87 -64 -87 -129 l0 -49 -216 0 -216 0 36 48 c164 218 262 429 318 685 19
88 22 133 23 322 0 231 -7 285 -58 464 -17 61 -19 75 -8 79 8 3 48 22 90 43
149 75 269 197 343 348 49 101 58 156 31 190 -24 30 -74 33 -102 6 -11 -9 -26
-34 -32 -54 -99 -305 -438 -486 -749 -400 -168 46 -316 168 -388 321 -51 106
-63 159 -63 273 0 114 12 167 63 273 49 103 149 210 249 266 190 105 438 100
624 -12 124 -75 229 -212 269 -353 19 -66 44 -92 86 -92 72 0 87 59 46 176
-85 241 -286 422 -540 487 -93 23 -256 26 -351 5z m-920 -897 c102 -20 246
-73 328 -121 36 -21 54 -42 87 -103 54 -98 169 -219 272 -285 76 -48 82 -55
113 -123 81 -180 109 -322 102 -526 -6 -188 -34 -299 -116 -465 -287 -576
-980 -801 -1552 -504 -64 33 -80 47 -89 73 -35 106 -190 279 -318 356 -67 39
-71 44 -107 122 -114 249 -126 571 -33 838 37 106 56 143 126 250 156 242 417
423 697 485 168 38 312 39 490 3z m-1020 -84 c-122 -105 -161 -144 -217 -213
-171 -214 -263 -441 -288 -713 -16 -173 11 -384 68 -535 l19 -50 -111 2 -110
2 -17 57 c-40 133 -54 247 -54 426 1 197 15 287 69 454 62 189 175 384 306
529 l62 67 151 0 152 -1 -30 -25z m-335 -1697 c187 -67 332 -220 387 -409 114
-396 -180 -788 -592 -788 -106 0 -190 21 -288 72 -293 153 -412 521 -263 816
83 165 228 283 403 327 94 23 261 15 353 -18z"/>
<path d="M2402 3469 c-30 -5 -87 -20 -128 -34 -497 -167 -757 -684 -593 -1180
79 -237 244 -424 472 -535 156 -76 312 -108 466 -95 416 33 746 313 848 723
27 106 24 323 -5 431 -89 327 -327 571 -649 667 -71 21 -114 27 -223 29 -74 2
-159 0 -188 -6z m353 -163 c148 -40 307 -141 401 -254 210 -255 240 -616 73
-898 -48 -83 -190 -223 -274 -272 -314 -184 -708 -127 -958 137 -227 241 -278
578 -132 876 106 218 301 368 545 420 81 18 262 13 345 -9z"/>
<path d="M2530 3157 c-35 -18 -50 -53 -50 -119 l0 -58 -37 0 c-47 0 -129 -38
-165 -76 -95 -102 -88 -271 16 -362 61 -54 94 -62 240 -62 105 0 138 -4 166
-18 65 -32 77 -113 24 -163 -25 -23 -30 -24 -241 -29 -198 -5 -216 -7 -229
-24 -23 -33 -18 -82 12 -105 23 -18 41 -21 120 -21 l94 0 0 -55 c0 -67 21
-112 55 -121 67 -17 105 27 105 121 0 54 1 55 29 55 41 0 105 25 147 56 111
85 125 268 28 368 -67 69 -102 80 -259 84 -156 3 -189 12 -210 53 -18 34 -19
60 -3 94 22 49 50 55 261 55 181 0 196 1 221 21 33 26 36 79 6 109 -17 17 -33
20 -119 20 l-99 0 -4 70 c-3 53 -8 75 -23 89 -28 27 -56 33 -85 18z"/>
<path d="M1185 1795 c-20 -19 -25 -34 -25 -72 l0 -48 -52 -13 c-103 -24 -168
-107 -168 -215 0 -70 24 -122 77 -166 51 -42 88 -51 216 -51 94 0 109 -2 127
-20 11 -11 20 -32 20 -47 -1 -64 -27 -73 -218 -73 -153 0 -159 -1 -180 -23
-29 -31 -28 -72 3 -102 21 -22 33 -25 100 -25 l75 0 0 -49 c0 -65 24 -95 75
-95 51 0 75 30 75 93 l0 46 52 13 c173 41 230 252 101 374 -49 47 -91 58 -218
58 -102 0 -117 2 -135 20 -11 11 -20 32 -20 48 1 63 27 72 218 72 153 0 159 1
180 23 31 33 29 80 -4 106 -22 17 -41 21 -100 21 l-74 0 0 50 c0 41 -5 56 -25
75 -13 14 -36 25 -50 25 -14 0 -37 -11 -50 -25z"/>
<path d="M1137 4502 c-24 -27 -22 -85 4 -108 20 -18 44 -19 569 -19 525 0 549
1 569 19 27 25 29 86 3 109 -17 15 -71 17 -574 17 -525 0 -556 -1 -571 -18z"/>
<path d="M3836 4309 c-22 -18 -26 -28 -26 -75 0 -45 -3 -54 -17 -54 -86 0
-181 -80 -203 -169 -17 -71 0 -140 49 -194 56 -63 97 -77 227 -77 97 0 115 -3
138 -21 17 -13 26 -30 26 -49 0 -19 -9 -36 -26 -49 -25 -19 -40 -21 -190 -21
-151 0 -166 -2 -184 -20 -28 -28 -26 -81 3 -108 20 -19 35 -22 100 -22 l77 0
0 -54 c0 -47 4 -57 26 -75 30 -24 43 -26 77 -10 31 14 47 48 47 99 0 35 3 40
23 40 43 0 130 53 161 97 35 50 46 137 26 198 -17 51 -85 117 -136 133 -23 6
-88 12 -145 12 -130 0 -152 11 -147 73 4 61 22 67 215 67 l162 0 20 26 c28 35
26 69 -4 99 -21 22 -33 25 -100 25 l-75 0 0 40 c0 51 -16 85 -47 99 -34 16
-47 14 -77 -10z"/>
<path d="M2717 722 c-24 -27 -22 -85 4 -108 20 -18 44 -19 569 -19 525 0 549
1 569 19 27 25 29 86 3 109 -17 15 -71 17 -574 17 -525 0 -556 -1 -571 -18z"/>
</g>
</svg>
