<svg xmlns="http://www.w3.org/2000/svg" width="512" height="512" viewBox="0 0 512 512" version="1.1"><path d="M 59.222 86.410 C 50.322 89.313, 44.074 96.897, 44.022 104.858 C 44.010 106.705, 48.056 139.738, 53.013 178.264 L 62.025 248.313 53.013 318.456 C 48.056 357.035, 44 390.054, 44 391.832 C 44 402.495, 54.565 411.251, 67.427 411.249 C 73.242 411.247, 80.716 408.161, 243.500 338.537 C 337 298.546, 415.108 264.734, 417.074 263.399 C 422.235 259.894, 425 254.415, 425 247.692 C 425 242.982, 424.515 241.522, 421.750 237.916 C 419.963 235.584, 416.925 232.868, 415 231.880 C 413.075 230.891, 335.696 197.648, 243.047 158.005 C 62.088 80.576, 68.932 83.242, 59.222 86.410 M 58.401 92.905 C 52.716 95.487, 49.998 99.615, 50.007 105.654 C 50.010 108.319, 54.006 141.503, 58.886 179.395 L 67.758 248.289 58.879 317.384 C 53.995 355.386, 50.002 388.509, 50.004 390.989 C 50.011 400.155, 56.584 405.573, 67.500 405.411 C 73.139 405.328, 83.578 401.006, 241 333.575 C 333.125 294.114, 410.262 260.854, 412.416 259.664 C 420.243 255.339, 421.976 246.301, 416.196 239.947 C 414.051 237.589, 378.611 222.060, 242.853 163.991 C 56.891 84.449, 67.781 88.646, 58.401 92.905 M 196.886 211.510 C 190.493 213.548, 184.619 220.092, 182.378 227.673 C 181.094 232.020, 180.658 237.188, 180.663 248.019 C 180.670 265.952, 182.317 272.369, 188.495 278.547 C 193.770 283.823, 199.568 285.501, 212.500 285.496 C 224.418 285.491, 229.888 283.748, 235.262 278.242 C 240.747 272.623, 242.164 267.606, 242.749 251.742 C 243.629 227.910, 240.272 218.306, 229 212.400 C 224.259 209.916, 203.676 209.346, 196.886 211.510 M 92.516 212.750 C 91.623 214.990, 90.366 234.832, 89.444 261.229 C 88.881 277.321, 89.002 282.297, 89.982 283.479 C 91.561 285.381, 104.963 285.637, 106.800 283.800 C 107.654 282.946, 108.023 276.385, 108.079 261.050 C 108.128 247.593, 108.482 240.439, 109.021 242 C 109.496 243.375, 111.955 251.125, 114.486 259.223 C 117.017 267.320, 119.775 274.632, 120.615 275.473 C 122.350 277.208, 134.466 277.623, 136.980 276.034 C 137.794 275.519, 141.021 267.313, 144.152 257.799 L 149.844 240.500 150.047 248 C 150.160 252.125, 150.532 262.025, 150.876 270 L 151.500 284.500 160 284.500 L 168.500 284.500 168.822 272 C 169.225 256.352, 167.192 215.228, 165.896 212.806 C 165.065 211.254, 163.556 211, 155.156 211 C 148.899 211, 144.778 211.450, 143.704 212.250 C 142.697 213, 139.592 221.708, 135.948 234 C 132.605 245.275, 129.560 254.816, 129.183 255.202 C 128.805 255.588, 125.862 246.588, 122.642 235.202 C 119.422 223.816, 116.091 213.713, 115.239 212.750 C 113.954 211.298, 111.946 211, 103.452 211 C 94.634 211, 93.117 211.243, 92.516 212.750 M 255.667 211.667 C 255.300 212.033, 255 228.178, 255 247.544 C 255 276.594, 255.246 282.959, 256.408 283.923 C 257.280 284.647, 260.605 284.979, 265.158 284.796 L 272.500 284.500 273 265.646 L 273.500 246.791 286.320 264.898 C 293.372 274.857, 299.980 283.454, 301.005 284.003 C 303.786 285.491, 312.557 285.239, 313.890 283.632 C 314.702 282.654, 314.951 272.163, 314.763 246.882 L 314.500 211.500 306 211.500 L 297.500 211.500 297 231 L 296.500 250.500 284.136 232 C 277.336 221.825, 271.063 212.938, 270.195 212.250 C 268.561 210.955, 256.848 210.485, 255.667 211.667 M 204.451 228.288 C 202.138 230.278, 201.678 231.679, 200.925 239.038 C 199.975 248.323, 200.569 259.932, 202.219 264.288 C 203.591 267.913, 205.781 269, 211.712 269 C 220.998 269, 222.989 265.204, 222.989 247.500 C 222.989 233.893, 221.898 229.516, 218.003 227.502 C 213.608 225.229, 207.603 225.577, 204.451 228.288 M 416 389.500 L 416 430 425.500 430 L 435 430 435 409.526 L 435 389.051 437.950 387.526 C 439.573 386.687, 443.328 386, 446.295 386 C 455.254 386, 455.439 386.467, 455.825 410.103 L 456.150 430 465.640 430 L 475.131 430 474.815 406.174 L 474.500 382.348 471.684 378.095 C 468.170 372.790, 462.512 370.052, 455 370.023 C 449.726 370.002, 448.684 370.369, 435.750 376.794 C 435.337 376.999, 435 370.829, 435 363.083 L 435 349 425.500 349 L 416 349 416 389.500 M 252.251 352.478 C 244.673 354.615, 240.070 357.247, 235.301 362.167 C 224.142 373.681, 221.157 394.993, 228.408 411.389 C 235.763 428.018, 256.257 435.689, 278.282 430.056 C 282.463 428.987, 287.260 427.400, 288.942 426.530 L 292 424.949 292 416.033 C 292 411.130, 291.617 406.881, 291.149 406.592 C 290.681 406.303, 288.769 407.225, 286.899 408.642 C 280.386 413.577, 273.947 415.980, 267.210 415.990 C 253.271 416.012, 246.056 407.669, 246.032 391.500 C 246.011 377.844, 251.624 369.437, 262.372 367.029 C 270.162 365.283, 277.824 367.587, 286.232 374.203 C 288.285 375.818, 290.423 376.857, 290.982 376.511 C 291.555 376.157, 292 371.803, 292 366.557 L 292 357.232 284.750 354.518 C 275.649 351.112, 260.470 350.159, 252.251 352.478 M 308 371.082 C 298.312 372.941, 299 372.257, 299 380.019 C 299 384.065, 299.426 387, 300.013 387 C 300.570 387, 304.273 386.100, 308.243 385 C 316.275 382.774, 321.667 382.502, 327.216 384.043 C 331.522 385.239, 334 387.389, 334 389.928 C 334 391.459, 332.717 391.810, 324.985 392.394 C 307.606 393.705, 297.536 398.803, 295.118 407.512 C 293.584 413.037, 293.749 415.850, 295.880 420.541 C 301.088 432.007, 315.605 435.364, 328.501 428.086 L 334 424.983 334 427.491 C 334 429.993, 334.025 430, 343.500 430 L 353 430 352.978 407.750 C 352.954 382.988, 352.217 379.427, 346.239 375.170 C 339.784 370.574, 321.076 368.574, 308 371.082 M 371.850 371.852 C 360.768 375.519, 356 381.045, 356 390.220 C 356 400.528, 362.153 405.653, 378.076 408.607 C 390.509 410.913, 394.030 413.968, 388.461 417.617 C 386.409 418.962, 384.360 419.173, 377.762 418.721 C 371.057 418.262, 368.377 417.534, 362.745 414.644 C 357.753 412.083, 355.754 411.476, 355.395 412.412 C 355.124 413.120, 355.036 416.787, 355.201 420.562 L 355.500 427.425 361.500 429.309 C 375.345 433.657, 393.779 432.269, 402.397 426.230 C 412.679 419.025, 412.681 403.806, 402.401 397.802 C 400.700 396.809, 394.476 394.931, 388.570 393.629 C 377.634 391.217, 374.246 389.408, 375.338 386.563 C 377.060 382.075, 390.866 381.961, 400.465 386.355 C 403.642 387.810, 406.637 389, 407.121 389 C 407.604 389, 408 385.642, 408 381.539 L 408 374.077 402.750 372.438 C 394.536 369.872, 378.737 369.573, 371.850 371.852 M 324.181 404.119 C 317.417 405.244, 315.172 406.466, 314.429 409.427 C 313.438 413.373, 314.365 416.379, 317 417.767 C 320.194 419.450, 328.087 418.828, 331.443 416.629 C 333.714 415.142, 334 414.284, 334 408.977 C 334 402.217, 334.406 402.418, 324.181 404.119" stroke="none" fill="#fbf5f6" fill-rule="evenodd"/><path d="M 0 256.002 L 0 512.004 256.250 511.752 L 512.500 511.500 512.752 255.750 L 513.004 0 256.502 0 L 0 0 0 256.002 M 0.492 256.500 C 0.492 397.300, 0.608 454.751, 0.750 384.170 C 0.892 313.588, 0.892 198.388, 0.750 128.170 C 0.608 57.951, 0.492 115.700, 0.492 256.500 M 59.222 86.410 C 50.322 89.313, 44.074 96.897, 44.022 104.858 C 44.010 106.705, 48.056 139.738, 53.013 178.264 L 62.025 248.313 53.013 318.456 C 48.056 357.035, 44 390.054, 44 391.832 C 44 402.495, 54.565 411.251, 67.427 411.249 C 73.242 411.247, 80.716 408.161, 243.500 338.537 C 337 298.546, 415.108 264.734, 417.074 263.399 C 422.235 259.894, 425 254.415, 425 247.692 C 425 242.982, 424.515 241.522, 421.750 237.916 C 419.963 235.584, 416.925 232.868, 415 231.880 C 413.075 230.891, 335.696 197.648, 243.047 158.005 C 62.088 80.576, 68.932 83.242, 59.222 86.410 M 58.401 92.905 C 52.716 95.487, 49.998 99.615, 50.007 105.654 C 50.010 108.319, 54.006 141.503, 58.886 179.395 L 67.758 248.289 58.879 317.384 C 53.995 355.386, 50.002 388.509, 50.004 390.989 C 50.011 400.155, 56.584 405.573, 67.500 405.411 C 73.139 405.328, 83.578 401.006, 241 333.575 C 333.125 294.114, 410.262 260.854, 412.416 259.664 C 420.243 255.339, 421.976 246.301, 416.196 239.947 C 414.051 237.589, 378.611 222.060, 242.853 163.991 C 56.891 84.449, 67.781 88.646, 58.401 92.905 M 196.886 211.510 C 190.493 213.548, 184.619 220.092, 182.378 227.673 C 181.094 232.020, 180.658 237.188, 180.663 248.019 C 180.670 265.952, 182.317 272.369, 188.495 278.547 C 193.770 283.823, 199.568 285.501, 212.500 285.496 C 224.418 285.491, 229.888 283.748, 235.262 278.242 C 240.747 272.623, 242.164 267.606, 242.749 251.742 C 243.629 227.910, 240.272 218.306, 229 212.400 C 224.259 209.916, 203.676 209.346, 196.886 211.510 M 92.516 212.750 C 91.623 214.990, 90.366 234.832, 89.444 261.229 C 88.881 277.321, 89.002 282.297, 89.982 283.479 C 91.561 285.381, 104.963 285.637, 106.800 283.800 C 107.654 282.946, 108.023 276.385, 108.079 261.050 C 108.128 247.593, 108.482 240.439, 109.021 242 C 109.496 243.375, 111.955 251.125, 114.486 259.223 C 117.017 267.320, 119.775 274.632, 120.615 275.473 C 122.350 277.208, 134.466 277.623, 136.980 276.034 C 137.794 275.519, 141.021 267.313, 144.152 257.799 L 149.844 240.500 150.047 248 C 150.160 252.125, 150.532 262.025, 150.876 270 L 151.500 284.500 160 284.500 L 168.500 284.500 168.822 272 C 169.225 256.352, 167.192 215.228, 165.896 212.806 C 165.065 211.254, 163.556 211, 155.156 211 C 148.899 211, 144.778 211.450, 143.704 212.250 C 142.697 213, 139.592 221.708, 135.948 234 C 132.605 245.275, 129.560 254.816, 129.183 255.202 C 128.805 255.588, 125.862 246.588, 122.642 235.202 C 119.422 223.816, 116.091 213.713, 115.239 212.750 C 113.954 211.298, 111.946 211, 103.452 211 C 94.634 211, 93.117 211.243, 92.516 212.750 M 255.667 211.667 C 255.300 212.033, 255 228.178, 255 247.544 C 255 276.594, 255.246 282.959, 256.408 283.923 C 257.280 284.647, 260.605 284.979, 265.158 284.796 L 272.500 284.500 273 265.646 L 273.500 246.791 286.320 264.898 C 293.372 274.857, 299.980 283.454, 301.005 284.003 C 303.786 285.491, 312.557 285.239, 313.890 283.632 C 314.702 282.654, 314.951 272.163, 314.763 246.882 L 314.500 211.500 306 211.500 L 297.500 211.500 297 231 L 296.500 250.500 284.136 232 C 277.336 221.825, 271.063 212.938, 270.195 212.250 C 268.561 210.955, 256.848 210.485, 255.667 211.667 M 204.451 228.288 C 202.138 230.278, 201.678 231.679, 200.925 239.038 C 199.975 248.323, 200.569 259.932, 202.219 264.288 C 203.591 267.913, 205.781 269, 211.712 269 C 220.998 269, 222.989 265.204, 222.989 247.500 C 222.989 233.893, 221.898 229.516, 218.003 227.502 C 213.608 225.229, 207.603 225.577, 204.451 228.288 M 416 389.500 L 416 430 425.500 430 L 435 430 435 409.526 L 435 389.051 437.950 387.526 C 439.573 386.687, 443.328 386, 446.295 386 C 455.254 386, 455.439 386.467, 455.825 410.103 L 456.150 430 465.640 430 L 475.131 430 474.815 406.174 L 474.500 382.348 471.684 378.095 C 468.170 372.790, 462.512 370.052, 455 370.023 C 449.726 370.002, 448.684 370.369, 435.750 376.794 C 435.337 376.999, 435 370.829, 435 363.083 L 435 349 425.500 349 L 416 349 416 389.500 M 252.251 352.478 C 244.673 354.615, 240.070 357.247, 235.301 362.167 C 224.142 373.681, 221.157 394.993, 228.408 411.389 C 235.763 428.018, 256.257 435.689, 278.282 430.056 C 282.463 428.987, 287.260 427.400, 288.942 426.530 L 292 424.949 292 416.033 C 292 411.130, 291.617 406.881, 291.149 406.592 C 290.681 406.303, 288.769 407.225, 286.899 408.642 C 280.386 413.577, 273.947 415.980, 267.210 415.990 C 253.271 416.012, 246.056 407.669, 246.032 391.500 C 246.011 377.844, 251.624 369.437, 262.372 367.029 C 270.162 365.283, 277.824 367.587, 286.232 374.203 C 288.285 375.818, 290.423 376.857, 290.982 376.511 C 291.555 376.157, 292 371.803, 292 366.557 L 292 357.232 284.750 354.518 C 275.649 351.112, 260.470 350.159, 252.251 352.478 M 308 371.082 C 298.312 372.941, 299 372.257, 299 380.019 C 299 384.065, 299.426 387, 300.013 387 C 300.570 387, 304.273 386.100, 308.243 385 C 316.275 382.774, 321.667 382.502, 327.216 384.043 C 331.522 385.239, 334 387.389, 334 389.928 C 334 391.459, 332.717 391.810, 324.985 392.394 C 307.606 393.705, 297.536 398.803, 295.118 407.512 C 293.584 413.037, 293.749 415.850, 295.880 420.541 C 301.088 432.007, 315.605 435.364, 328.501 428.086 L 334 424.983 334 427.491 C 334 429.993, 334.025 430, 343.500 430 L 353 430 352.978 407.750 C 352.954 382.988, 352.217 379.427, 346.239 375.170 C 339.784 370.574, 321.076 368.574, 308 371.082 M 371.850 371.852 C 360.768 375.519, 356 381.045, 356 390.220 C 356 400.528, 362.153 405.653, 378.076 408.607 C 390.509 410.913, 394.030 413.968, 388.461 417.617 C 386.409 418.962, 384.360 419.173, 377.762 418.721 C 371.057 418.262, 368.377 417.534, 362.745 414.644 C 357.753 412.083, 355.754 411.476, 355.395 412.412 C 355.124 413.120, 355.036 416.787, 355.201 420.562 L 355.500 427.425 361.500 429.309 C 375.345 433.657, 393.779 432.269, 402.397 426.230 C 412.679 419.025, 412.681 403.806, 402.401 397.802 C 400.700 396.809, 394.476 394.931, 388.570 393.629 C 377.634 391.217, 374.246 389.408, 375.338 386.563 C 377.060 382.075, 390.866 381.961, 400.465 386.355 C 403.642 387.810, 406.637 389, 407.121 389 C 407.604 389, 408 385.642, 408 381.539 L 408 374.077 402.750 372.438 C 394.536 369.872, 378.737 369.573, 371.850 371.852 M 324.181 404.119 C 317.417 405.244, 315.172 406.466, 314.429 409.427 C 313.438 413.373, 314.365 416.379, 317 417.767 C 320.194 419.450, 328.087 418.828, 331.443 416.629 C 333.714 415.142, 334 414.284, 334 408.977 C 334 402.217, 334.406 402.418, 324.181 404.119" stroke="none" fill="#dd0d2b" fill-rule="evenodd"/></svg>